PathFileType	4	(X/Y/Z)	./resultDataOpenSim/trcMotMarkerGrf/sub10/qtm-04-08.trc
DataRate	CameraRate	NumFrames	NumMarkers	Units	OrigDataRate	OrigDataStartFrame	OrigNumFrames
250.000000	250.000000	12	24	m	250.000000	203	541
Frame#	Time	L.Toe.Tip			R.Toe.Tip			L.Ankle.Lat			R.Ankle.Lat			L.Ankle.Med			R.Ankle.Med			L.Heel			R.Heel			L.Knee.Lat			R.Knee.Lat			L.Knee.Med			R.Knee.Med			L.Thigh.Upper			R.Thigh.Upper			L.ASIS			R.ASIS			V.Sacral			L.Acromium			R.Acromium			C7			L.Elbow			R.Elbow			L.Wrist.Lat			R.Wrist.Lat
		X1	Y1	Z1	X2	Y2	Z2	X3	Y3	Z3	X4	Y4	Z4	X5	Y5	Z5	X6	Y6	Z6	X7	Y7	Z7	X8	Y8	Z8	X9	Y9	Z9	X10	Y10	Z10	X11	Y11	Z11	X12	Y12	Z12	X13	Y13	Z13	X14	Y14	Z14	X15	Y15	Z15	X16	Y16	Z16	X17	Y17	Z17	X18	Y18	Z18	X19	Y19	Z19	X20	Y20	Z20	X21	Y21	Z21	X22	Y22	Z22	X23	Y23	Z23	X24	Y24	Z24

203	0.808	-0.032612026	-0.032495018	-0.01794718	-0.74524083	0.039099219	0.033975224	-0.1708398	-0.0084199349	-0.055809013	-0.86220734	0.11724252	0.054726998	-0.17068004	0.014794485	0.026501597	-0.81565269	0.12366998	-0.021665654	-0.23442919	-0.0374454	-0.016273172	-0.90838813	0.11972188	-0.0027965513	-0.17026583	0.37699837	-0.091452236	-0.56399745	0.38058363	0.11569689	-0.17495428	0.3575478	0.02921997	-0.51574115	0.36633246	-0.0020674056	-0.26939123	0.74510443	-0.16588272	-0.44727284	0.76484283	0.18497298	-0.2503511	0.84688239	-0.079328975	-0.3362142	0.84335024	0.1514111	-0.48423078	0.86858632	-0.045658519	-0.362334	1.3200449	-0.151903	-0.40419051	1.3177277	0.17174277	-0.46866605	1.3427829	-0.0073633805	-0.5181174	1.024161	-0.22905677	-0.39955749	0.95232436	0.19515735	-0.46155976	0.79134973	-0.27030644	-0.1715192	0.86333579	0.23639348
204	0.812	-0.03245038	-0.032567583	-0.017940979	-0.7444081	0.039001024	0.034037484	-0.17022015	-0.0080317324	-0.055962419	-0.85811283	0.12147688	0.055688405	-0.17020428	0.015186989	0.026389997	-0.8107865	0.12638807	-0.02035359	-0.23435006	-0.037053857	-0.016477184	-0.90394017	0.1255925	-0.0017715964	-0.1629272	0.37792018	-0.090218459	-0.55582524	0.37940607	0.11657531	-0.17051162	0.35791039	0.030246111	-0.5076144	0.3643033	-0.00088796341	-0.26325032	0.74614631	-0.16631171	-0.43897673	0.76256354	0.18479387	-0.24449032	0.84672014	-0.08003319	-0.32855164	0.84184877	0.15042831	-0.47768922	0.86809317	-0.044675279	-0.35634958	1.319068	-0.15253564	-0.39774722	1.3173225	0.17134534	-0.46261132	1.3421717	-0.0078204847	-0.51046247	1.0222681	-0.22913265	-0.39511649	0.95183631	0.19457904	-0.45502593	0.78953289	-0.27083136	-0.16771476	0.86144129	0.23665396
205	0.816	-0.032248453	-0.032660959	-0.017999241	-0.74349412	0.038888338	0.034118946	-0.16955306	-0.0076791923	-0.05621047	-0.85346163	0.12591701	0.056630951	-0.16965301	0.015641422	0.026165538	-0.80527187	0.12909713	-0.018941347	-0.23421064	-0.036633959	-0.016838196	-0.8988018	0.13167568	-0.00083003144	-0.15563339	0.37891125	-0.089119534	-0.54715919	0.37821114	0.11758731	-0.16587593	0.35850326	0.031156044	-0.4990332	0.3621725	0.00042538263	-0.257269	0.74723776	-0.16679707	-0.43075193	0.76033453	0.18468686	-0.2386418	0.84678759	-0.080736314	-0.32089417	0.8404575	0.149339	-0.4707849	0.86739308	-0.043953	-0.35038552	1.3181905	-0.15316435	-0.39126725	1.3170167	0.17095167	-0.45649407	1.3417028	-0.0082404996	-0.50273489	1.0204727	-0.22924149	-0.39065688	0.9514665	0.19405491	-0.44837517	0.78782481	-0.27132586	-0.16404238	0.85950803	0.23694841
206	0.82	-0.032038491	-0.032751108	-0.018092002	-0.74247656	0.038761095	0.034213092	-0.16888779	-0.0073970825	-0.056495604	-0.84809996	0.13055677	0.057564317	-0.16908647	0.016111812	0.025863419	-0.79924445	0.13184803	-0.017333053	-0.23404913	-0.036239285	-0.017275945	-0.89281957	0.1378805	-7.0923172e-05	-0.14850366	0.37990133	-0.088153048	-0.53803015	0.3770112	0.11874617	-0.161053	0.35925026	0.031928155	-0.48995955	0.35992479	0.0018922231	-0.25139981	0.7482928	-0.16733019	-0.4227542	0.75821605	0.18481172	-0.23280166	0.84707159	-0.081438856	-0.31330722	0.83917442	0.1481832	-0.46400636	0.86656025	-0.043464472	-0.3444456	1.3174119	-0.15377722	-0.38477455	1.3168059	0.17054704	-0.45031313	1.3413628	-0.0086254717	-0.49495531	1.0187967	-0.22928291	-0.38620177	0.95123418	0.19359285	-0.44159857	0.78623309	-0.27178475	-0.16051964	0.85754346	0.23727948
207	0.824	-0.031849931	-0.032823793	-0.018194834	-0.74134504	0.038617004	0.034309663	-0.16829226	-0.0071926666	-0.056779037	-0.84193633	0.13535734	0.058511422	-0.16858533	0.016559169	0.025522701	-0.79291722	0.13472348	-0.015477095	-0.23390073	-0.035914672	-0.017722374	-0.88601172	0.14419297	0.00053232172	-0.14160539	0.3808207	-0.087345544	-0.52850547	0.37580305	0.1200988	-0.1560756	0.36007683	0.032546655	-0.48036871	0.35754607	0.0035170808	-0.24563892	0.74925403	-0.16790043	-0.4149587	0.75619594	0.1851164	-0.2269849	0.84754171	-0.082154559	-0.30590521	0.83798599	0.14704013	-0.45752842	0.86573149	-0.042938892	-0.33852659	1.3167273	-0.15435984	-0.37825567	1.3166963	0.17011864	-0.44408069	1.3411362	-0.0089762707	-0.48714692	1.0172517	-0.22920058	-0.38177191	0.95114529	0.19318637	-0.43468901	0.78476306	-0.27220551	-0.15714604	0.85555877	0.23763867
208	0.828	-0.03169453	-0.032884672	-0.018295934	-0.7401285	0.038441652	0.034412348	-0.16780911	-0.0070689905	-0.057043933	-0.83508201	0.14022775	0.059488961	-0.16820907	0.016948407	0.025180799	-0.78633329	0.13771225	-0.013444163	-0.23378193	-0.035680322	-0.018142532	-0.8784371	0.15062675	0.0010492549	-0.13500477	0.38158593	-0.086723834	-0.51867228	0.37456371	0.12168457	-0.15098316	0.36092368	0.033006453	-0.47024321	0.35502327	0.0052786249	-0.24002968	0.75008887	-0.16849586	-0.40729	0.75424254	0.18548564	-0.22120227	0.84815719	-0.082897667	-0.29876927	0.8368856	0.14596997	-0.4512629	0.86497237	-0.04220831	-0.33262142	1.316131	-0.15489631	-0.37168797	1.3166915	0.16968216	-0.43782007	1.3410002	-0.0092895385	-0.47933573	1.0158306	-0.22901378	-0.37737909	0.95119757	0.1928222	-0.42764695	0.78341819	-0.27258601	-0.1539018	0.85356589	0.23800666
209	0.832	-0.031568887	-0.032943536	-0.018390432	-0.73888857	0.038213564	0.034541589	-0.16743633	-0.0070305727	-0.057285403	-0.82780861	0.14505526	0.060491858	-0.16799418	0.017244405	0.024867184	-0.77931789	0.14068192	-0.011390716	-0.23369198	-0.0355358	-0.01852692	-0.87012063	0.15719918	0.0015378486	-0.12879852	0.38211129	-0.086298359	-0.50859044	0.37325245	0.1234679	-0.14580805	0.36174528	0.033313018	-0.45958914	0.35235354	0.0071362239	-0.23461571	0.75078787	-0.1691076	-0.39971449	0.75234436	0.18585433	-0.21544938	0.84887146	-0.083674289	-0.2918838	0.83588207	0.14497098	-0.44500326	0.86422492	-0.04141843	-0.32672514	1.3156197	-0.15537577	-0.36507429	1.3167803	0.16926641	-0.43155763	1.3409289	-0.0095591729	-0.47155538	1.0145131	-0.2287478	-0.37303016	0.9513867	0.19248995	-0.42047281	0.78219835	-0.27292415	-0.15077111	0.85157027	0.23837313
210	0.836	-0.031467027	-0.033003022	-0.01847519	-0.73766124	0.037930407	0.034717625	-0.16714446	-0.007078182	-0.057497577	-0.82030763	0.14977457	0.061511326	-0.167957	0.01741874	0.024603577	-0.77172679	0.14351869	-0.0094268502	-0.23362641	-0.035474161	-0.01887238	-0.86106939	0.16392355	0.002036153	-0.12310737	0.38233828	-0.086073885	-0.49825393	0.37183763	0.12534552	-0.14057564	0.3624951	0.033478972	-0.44845128	0.34954994	0.0090550488	-0.22940142	0.75135976	-0.16973371	-0.39223864	0.75052197	0.18619651	-0.20973257	0.84963954	-0.084479137	-0.28517401	0.83498453	0.14400797	-0.43860499	0.86340555	-0.040825208	-0.32084337	1.3151936	-0.15579915	-0.35844815	1.3169432	0.16888513	-0.42531754	1.3408998	-0.0097860406	-0.4638477	1.0132801	-0.22838996	-0.36873089	0.95170764	0.1921879	-0.41315549	0.78110324	-0.27322519	-0.14775237	0.84956866	0.23874618
211	0.84	-0.031389524	-0.033060444	-0.018547744	-0.73638495	0.037644347	0.034949448	-0.1669042	-0.0072058517	-0.057670585	-0.81258052	0.15438619	0.062558016	-0.16805045	0.017464134	0.024403632	-0.7636049	0.14621561	-0.0075572913	-0.23358572	-0.035484151	-0.019171258	-0.85137118	0.17075144	0.0025918974	-0.11803511	0.38225315	-0.086053371	-0.48763353	0.37032126	0.12724196	-0.13531262	0.36311494	0.033518534	-0.4368877	0.34663533	0.01102219	-0.22436472	0.75182016	-0.17037552	-0.38488226	0.7488102	0.1864955	-0.20409474	0.85043043	-0.085295009	-0.27858346	0.83418828	0.14306198	-0.43217719	0.86255321	-0.040416508	-0.3149927	1.3148576	-0.1561762	-0.35184997	1.3171637	0.16853312	-0.41912043	1.3408966	-0.0099834792	-0.45623658	1.0121211	-0.22793802	-0.36448296	0.95214997	0.19191766	-0.40566571	0.78013434	-0.27350958	-0.14484078	0.84755785	0.23913084
212	0.844	-0.03134019	-0.033112797	-0.018606192	-0.73487765	0.037494861	0.03523853	-0.16670193	-0.0074007116	-0.057793123	-0.80455548	0.15891792	0.063652694	-0.16815076	0.017397842	0.024277118	-0.75510194	0.14882691	-0.0057461826	-0.23357225	-0.035547791	-0.019404001	-0.84125028	0.17754448	0.0032757581	-0.11362803	0.38187844	-0.086226465	-0.47675942	0.36872399	0.12915663	-0.13006552	0.36354265	0.033435427	-0.42495347	0.34363713	0.013037578	-0.21948323	0.75218375	-0.17102745	-0.37765459	0.74722038	0.18673895	-0.19858973	0.85123139	-0.08609867	-0.27210226	0.83348046	0.14214559	-0.4260487	0.86183895	-0.039857347	-0.30918654	1.3146156	-0.15651771	-0.34530148	1.3174296	0.16819075	-0.41298174	1.3409081	-0.010170749	-0.44868256	1.0110295	-0.22747707	-0.3602812	0.95269893	0.1916769	-0.39796885	0.77929133	-0.27380427	-0.14202397	0.84554143	0.23952128
213	0.848	-0.031318236	-0.033159574	-0.018648906	-0.73291939	0.03770291	0.03557448	-0.16653743	-0.0076431533	-0.057853308	-0.79620231	0.16340103	0.064808701	-0.16815056	0.017244488	0.024239325	-0.74635789	0.15142519	-0.0039882022	-0.2335842	-0.035645552	-0.019540615	-0.83092354	0.18416484	0.0041363379	-0.10987226	0.38125152	-0.086568041	-0.46572025	0.36706711	0.13112177	-0.12492578	0.36373079	0.033204241	-0.41271417	0.3405908	0.015097341	-0.21473695	0.75246457	-0.17167223	-0.3705509	0.74573499	0.18692336	-0.19324362	0.85203941	-0.086875628	-0.26574114	0.83285363	0.14128799	-0.42044952	0.86138205	-0.038900209	-0.30341996	1.314463	-0.15683216	-0.33880326	1.3177304	0.16783314	-0.40691066	1.3409294	-0.010362015	-0.44109989	1.0100029	-0.22714704	-0.3561139	0.95334255	0.19146	-0.39006205	0.7785681	-0.27411179	-0.13929496	0.84352585	0.2399154
214	0.852	-0.03131743	-0.033202511	-0.018674631	-0.7303865	0.038481568	0.035932243	-0.16641135	-0.0079097787	-0.057841308	-0.78753758	0.16786698	0.066031102	-0.16803871	0.017020341	0.024305078	-0.73745378	0.15409413	-0.0023098415	-0.233615	-0.035762311	-0.019556816	-0.82045225	0.19058609	0.0051921356	-0.10671463	0.38041295	-0.087052157	-0.4545915	0.36537994	0.13315945	-0.12003494	0.36365845	0.03278055	-0.40024505	0.33754358	0.017188123	-0.21009895	0.7526797	-0.17228851	-0.36356592	0.74434642	0.18705093	-0.18805036	0.85285239	-0.087625533	-0.25950788	0.83231154	0.1405152	-0.41530604	0.86112276	-0.03766527	-0.29766355	1.314391	-0.1571261	-0.33235372	1.3180621	0.16744896	-0.40091276	1.3409617	-0.010561162	-0.43346805	1.0090497	-0.22698414	-0.35196537	0.95407152	0.19126234	-0.38200061	0.77794888	-0.27438715	-0.13664866	0.84151265	0.2403158
